<svg xmlns="http://www.w3.org/2000/svg" xmlns:xlink="http://www.w3.org/1999/xlink" width="1500" zoomAndPan="magnify" viewBox="0 0 1125 1124.99995" height="1500" preserveAspectRatio="xMidYMid meet" version="1.2"><defs><clipPath id="bd8e9194a6"><path d="M 10.738281 10.738281 L 1113.988281 10.738281 L 1113.988281 1113.988281 L 10.738281 1113.988281 Z M 10.738281 10.738281 "/></clipPath></defs><g id="914ffa8971"><g clip-rule="nonzero" clip-path="url(#bd8e9194a6)"><path style=" stroke:none;fill-rule:nonzero;fill:#ffffff;fill-opacity:1;" d="M 1110.089844 566.683594 C 674.71875 620.425781 620.425781 674.71875 566.683594 1110.089844 C 566.617188 1110.621094 566.460938 1111.121094 566.210938 1111.59375 C 565.964844 1112.066406 565.636719 1112.480469 565.238281 1112.835938 C 564.835938 1113.191406 564.386719 1113.460938 563.886719 1113.652344 C 563.386719 1113.839844 562.871094 1113.933594 562.335938 1113.933594 C 561.800781 1113.933594 561.285156 1113.839844 560.785156 1113.652344 C 560.285156 1113.460938 559.832031 1113.191406 559.433594 1112.835938 C 559.03125 1112.480469 558.707031 1112.066406 558.457031 1111.59375 C 558.210938 1111.121094 558.050781 1110.621094 557.988281 1110.089844 C 504.25 674.71875 449.957031 620.425781 14.582031 566.683594 C 14.050781 566.617188 13.550781 566.460938 13.074219 566.210938 C 12.601562 565.964844 12.1875 565.636719 11.835938 565.238281 C 11.480469 564.835938 11.210938 564.386719 11.019531 563.886719 C 10.832031 563.386719 10.734375 562.871094 10.734375 562.335938 C 10.734375 561.800781 10.832031 561.285156 11.019531 560.785156 C 11.210938 560.285156 11.480469 559.832031 11.835938 559.433594 C 12.1875 559.03125 12.601562 558.707031 13.074219 558.457031 C 13.550781 558.210938 14.050781 558.050781 14.582031 557.988281 C 449.957031 504.25 504.25 449.957031 557.984375 14.582031 C 558.046875 14.050781 558.203125 13.550781 558.453125 13.074219 C 558.703125 12.601562 559.027344 12.1875 559.429688 11.835938 C 559.828125 11.480469 560.277344 11.210938 560.777344 11.019531 C 561.277344 10.832031 561.796875 10.734375 562.332031 10.734375 C 562.867188 10.734375 563.382812 10.832031 563.882812 11.019531 C 564.382812 11.210938 564.832031 11.480469 565.234375 11.835938 C 565.632812 12.1875 565.957031 12.601562 566.207031 13.074219 C 566.457031 13.550781 566.613281 14.050781 566.679688 14.582031 C 620.425781 449.957031 674.71875 504.25 1110.089844 557.984375 C 1110.621094 558.046875 1111.125 558.203125 1111.601562 558.449219 C 1112.074219 558.699219 1112.492188 559.023438 1112.847656 559.421875 C 1113.203125 559.824219 1113.476562 560.277344 1113.667969 560.777344 C 1113.859375 561.277344 1113.953125 561.796875 1113.953125 562.332031 C 1113.953125 562.871094 1113.859375 563.386719 1113.667969 563.890625 C 1113.476562 564.390625 1113.203125 564.839844 1112.847656 565.242188 C 1112.492188 565.644531 1112.074219 565.96875 1111.601562 566.214844 C 1111.125 566.464844 1110.621094 566.621094 1110.089844 566.683594 Z M 1110.089844 566.683594 "/></g></g></svg>