<svg xmlns="http://www.w3.org/2000/svg" viewBox="0 0 4511 1251"><clipPath id="a"><path d="M0 0h4511v1251H0z"/></clipPath><g fill="#fff" clip-path="url(#a)"><path d="m53.355 310.235 200.453-.085c37.343-.003 77.36-1.488 114.428.961 17.024 1.068 33.655 3.548 49.327 7.356 56.8 13.653 92.714 42.683 114.251 73.645 37.729 54.239 43.193 128.768 17.198 184.737-7.589 16.339-19.161 31.353-31.537 46.708 27.365 20.536 47.118 43.833 58.133 68.563 32.965 72.986 24.362 175.009-46.442 240.213-8.625 9.033-22.753 18.182-35.753 25.402-25.954 14.413-61.415 25.296-97.256 30.078-46.053 6.144-99.01 3.391-146.314 3.399l-196.798-.029-.218-422.692c-.011-85.997-2.816-172.306.528-258.256Zm361.966 541.862c37.539-29.79 42.975-69.724 31.78-104.701-6.014-18.79-20.117-39.818-49.608-51.179-8.538-3.289-17.857-5.682-28.182-6.596-19.186-1.7-40.735-.671-60.198-.644l-113.969.122c-4.874 22.744-1.379 47.575-1.389 70.545-.017 36.106-2.159 72.653.768 108.708 40.333.091 141.511 2.875 175.657-1.051 14.422-1.658 27.164-4.666 37.741-10.437a58.86 58.86 0 0 0 7.4-4.767ZM194.618 566.089c39.866.311 137.783 3.437 171.344-1.567 10.799-1.611 19.022-4.825 27.167-8.933 30.547-23.547 35.256-54.135 26.882-82.146-4.308-14.41-14.474-30.724-37.424-39.236-28.296-10.494-138.61-5.623-177.015-5.814l-7.792.389c-1.006.683-2.43 1.231-3.016 2.048-4.162 5.807-1.806 122.691-.146 135.259Zm2900.262-267.39c44.28-.039 91.41-1.8 135.35.572 1.7 44.944.3 90.051.29 135.01l-.01 253.833V882.3c-.01 36.201 1.69 72.671-.88 108.839l-126.57.004c-1.78-15.12-.67-30.678-.98-45.855-28.14 25.319-62.26 47.207-116.88 54.572-47.23 6.37-90.52-1.39-130.84-14.789-23.68-11.647-44.76-23.323-62.92-37.767-99.62-79.224-112.04-203.365-80.91-295.754 18.25-54.159 62.58-122.186 148.86-154.325 36.22-13.495 76.89-19.487 120.38-14.587 53.05 5.978 85.4 27.413 113.83 50.879 1.94-53.531.49-107.193.41-160.738-.03-24.519-2.02-49.634.87-74.08ZM2983.7 878.658c38.58-7.463 59.9-20.733 77.12-40.698 43.35-50.276 44.16-127.539 10.04-179.531-12.65-19.264-34.62-42.041-70.56-50.601-18.36-4.372-34.52-4.15-53.91-3.206-43.8 10.358-67.46 28.272-84.62 52.22-35.61 49.721-34.41 127.882 5.06 176.675 14.45 17.861 36.84 35.705 71.48 42.761 15.45 3.146 29.35 3.108 45.39 2.38Zm621.64-568.295c62.22-1.108 125.05-.1 187.31-.006 19.4 42.529 30.51 87.1 44.97 130.246l77.77 230.33 72.2 213.381c11.96 35.373 27.01 71.221 35.27 106.903l-153.5-.009c-12.51-46.33-29.94-92.602-45.14-138.714l-24.6-.172-224.95.023c-7.84 17.38-12.51 35.6-18.23 53.259a4380.37 4380.37 0 0 1-28.51 85.479c-50.64.201-101.28.156-151.92-.137 4.26-22.23 14.62-45.056 21.97-67.117l48.91-144.726 158.45-468.74Zm179.19 418.8c-14.78-54.06-34.56-107.911-51.83-161.767-4.35-13.566-14.65-58.136-22.91-67.865-1.78-9.252-5.71-18.137-9.61-27.176-3.9 7.387-6.96 14.806-9.89 22.323-10.85 24.832-75.77 219.538-72.34 233.769 28.14 3.516 133.34 1.464 166.58.716Z"/><path d="M3690.29 494.678c2.93-7.517 5.99-14.936 9.89-22.323 3.9 9.039 7.83 17.924 9.61 27.176-2.77-1.648-2.06-1.026-3.82-2.711l-5.38-5.153-3.7-.226-6.6 3.237Z" fill-opacity=".078"/><path d="M1881 481.511c48.44-1.045 85.85 3.874 125.52 19.739 90.62 36.237 134.53 107.46 151.33 166.136 26.16 91.343 7.83 206.408-94.38 282.309-36.75 27.293-81.81 46.542-143.82 51.725-53.61 1.75-96.25-5.628-137.33-24.899-97.48-45.742-136.69-126.458-146.02-194.306-12.02-87.307 9.3-191.519 117.33-259.953 31.35-19.866 78-38.883 127.37-40.751Zm38.29 396.9c39.19-8.22 59.55-22.247 76.44-42.861 41.15-50.235 41.6-128.796 5.78-179.964-13.28-18.953-34.89-40.215-70.78-48.317-17.24-3.892-32.06-3.398-50.13-2.688-40.84 9.725-63.71 26.56-79.89 48.936-37.83 52.306-37.61 128.954 3.09 180.699 13.45 17.103 34.43 34.634 67.12 41.776 16.36 3.573 31.15 3.513 48.37 2.419ZM844.209 481.616c18.983-.384 37.363-.78 56.097 1.212 53.695 5.71 96.451 26.261 126.234 50.618 71.79 58.703 102.72 176.309 78.06 246.138-68.91-.317-137.822-.363-206.731-.139-41.403-.039-83.729-1.078-125.009-.007-6.144.159-10.505-.11-15.241 2.107-5.916 13.916 7.267 37.815 15.892 51.147 12.325 19.051 33.259 38.67 68.087 47.354 20.192 5.035 44.36 5.439 64.897.738 40.375-9.242 58.352-30.857 72.991-51.78 35.794 17.056 73.704 33.514 107.664 51.635-2.09 24.369-37.03 60.22-64.52 79.009-33.299 22.751-75.711 38.709-129.378 41.722-47.974 2.7-95.117-4.691-132.333-21.66-99.933-45.565-132.157-126.452-143.992-194.356-14.934-85.675 7.594-196.571 110.8-264.766 28.176-18.617 71.116-36.729 116.482-38.972ZM758.85 679.275c38.916.345 77.84.429 116.76.253 30.373.001 61.313.684 91.615-.209-5.043-27.184-14.695-61.238-55.522-79.734-16.005-7.25-36.109-10.807-56.739-9.775-31.834 5.742-52.203 14.739-67.673 31.3-16.275 17.422-25.401 38.758-28.441 58.165Zm357.69-186.845 142 .038 118.21 321.137 118.26-321.057c48.64-.588 97.41-.116 146.05-.062-11.68 33.966-26.31 67.773-39.51 101.578-38.23 97.934-78.94 195.703-114.92 293.886-40.54 79.886-53.64 203.31-143.17 268.93-24.5 17.96-59.26 32.56-100.84 35.33-33.38 2.23-64.82-3.47-91.02-14.6-1.91-37.16-.41-74.51-.22-111.69 25.94 5.5 57.1 11.32 84.74 6.35 35.14-6.32 47.21-31.34 57.21-48.52 5.93-10.17 13.53-21.71 13.37-32.53-.17-12.383-8.04-25.636-12.89-37.717l-23.66-59.954-98.57-250.612c-18.57-46.604-41.33-95.026-55.68-141.937-1.08-3.513-2.2-5.38.64-8.57Zm1339.96-10.823c9.93-.219 20.17-.63 30.08-.27 36.89 1.338 71.22 12.463 95.5 27.445 40.11 24.755 62.01 60.574 72.49 92.67 11.18 34.244 10.23 69.117 10.26 103.772l-.1 97.872.1 117.879c.02 23.323 1.32 46.912-.97 70.192l-134.9-.031c-2.66-70.195-.18-140.672-.18-210.905 0-39.139 7.26-91.199-10.47-128.694-7.66-16.187-23.14-34.796-50.81-43.17-14.79-4.474-34.65-5.886-50.85-3.023-23.33 4.124-37.65 16.117-48.81 27.307-11.94 13.035-17.6 27.377-20.3 41.848-5.99 32.01-2.6 65.485-2.56 97.71.07 72.794 3.43 146.093-.56 218.826-44.79.699-90.03.076-134.86.08-3.45-70.358-.58-141.14-.56-211.538.02-95.688-1.77-191.477.3-287.154 41.93-.148 83.86-.138 125.79.03 1.44 19.671-.07 39.447 1.16 59.151 9.74-14.7 19.91-28.916 37.29-41.485 19.99-14.459 49.73-26.068 82.96-28.512Zm1599.55-167.696c31.81 3.842 61.66 12.125 82.91 25.912 32.17 20.872 47.5 53.982 53.69 80.484 7.44 31.899 4.22 65.762 4.21 97.961l-.1 157.86.06 202.057c.01 37.425 3.14 75.778-2 113.069l-139.75-.073c-1.89-19.057-.81-38.367-.83-57.454l-.03-99.202-.05-304.207-.11-150.262c-.01-18.664-4.52-48.713 2-66.145Z"/><path d="M4246.54 47.008c14.28 57.589 3.42 160.241 94.86 198.663 16.49 6.929 35.63 12.148 55.01 16.126l2.29.839c7.83 2.837 43.51 10.411 45.14 11.571-6.72 6.096-25.07 6.264-34.92 11.125-10.23 5.043-48.55 9.966-64.46 16.242-95.28 37.565-81.92 142.371-98.14 199.737-16.36-53.995-5.92-113.351-48.24-164.359-25.51-30.741-64.54-41.174-119.47-52.29-8.67-4.01-19-4.964-26.43-10.058.23-.617-.08-1.388.7-1.85 1.15-.68 34.61-7.781 41.14-10.212l2.01-.761c45.02-8.654 80.01-23.718 100.63-47.628 33.96-39.378 36.68-89.841 43.7-132.782 1.86-11.367 2.61-23.127 6.18-34.363Z"/><path d="M4396.41 261.797c21.31 3.308 51.19 5.175 69.76 11.446l1.18 1.996c-10.52 5.935-43.6 8.935-58.43 10.093 9.85-4.861 28.2-5.029 34.92-11.125-1.63-1.16-37.31-8.734-45.14-11.571l-2.29-.839Z" fill-opacity=".871"/><path d="M4078.61 284.662c-11.78-.672-45.4-4.421-52.72-9.348l1.43-2.059c18.34-6.483 47.54-8.288 68.71-11.474l-2.01.761c-6.53 2.431-39.99 9.532-41.14 10.212-.78.462-.47 1.233-.7 1.85 7.43 5.094 17.76 6.048 26.43 10.058Z" fill-opacity=".882"/></g></svg>