<svg version="1.0" preserveAspectRatio="xMidYMid meet" viewBox="58.05 6.075000053999999 219.375 325.35000289199996" zoomAndPan="magnify" xmlns:xlink="http://www.w3.org/1999/xlink" xmlns="http://www.w3.org/2000/svg" style="max-height: 500px" width="219.375" height="325.35000289199996"><defs><clipPath id="ff13b393a8"><path clip-rule="nonzero" d="M 65.050781 10 L 271.746094 10 L 271.746094 326 L 65.050781 326 Z M 65.050781 10"/></clipPath></defs><g clip-path="url(#ff13b393a8)"><path fill-rule="nonzero" fill-opacity="1" d="M 144.902344 271.566406 C 155.292969 260.847656 162.996094 248.789062 167.023438 234.855469 C 170.785156 221.515625 170.785156 207.429688 170.324219 192.683594 L 230.984375 192.683594 L 230.984375 152.1875 L 165.152344 152.1875 C 162.335938 138.363281 160 125.289062 160 109.089844 C 160 81.46875 172.679688 57.632812 207.476562 57.632812 C 225.832031 57.632812 239.457031 61.921875 248.394531 67.160156 L 258.738281 22.832031 C 248.394531 16.628906 230.519531 10.925781 205.121094 10.925781 C 146.816406 10.925781 105.902344 49.046875 105.902344 107.660156 C 105.902344 122.914062 108.257812 138.847656 110.589844 152.1875 L 70.15625 152.1875 L 70.15625 192.683594 L 117.171875 192.683594 C 118.601562 201.730469 119.0625 209.148438 119.0625 218.195312 C 119.0625 252.023438 94.148438 280.613281 65.910156 293.953125 L 65.910156 325.867188 L 272.472656 325.867188 L 272.472656 271.566406 Z M 144.902344 271.566406" fill="#ffffff"/></g></svg>